<svg version="1.1" id="Layer_1" xmlns="http://www.w3.org/2000/svg" xmlns:xlink="http://www.w3.org/1999/xlink" x="0px" y="0px"
	 width="100%" viewBox="0 0 790 445" enable-background="new 0 0 790 445" xml:space="preserve">
<path fill="#010101" opacity="1.000000" stroke="none" 
	d="
M579.000000,446.000000 
	C386.000000,446.000000 193.500000,446.000000 1.000000,446.000000 
	C1.000000,297.666656 1.000000,149.333328 1.000000,1.000000 
	C264.333344,1.000000 527.666687,1.000000 791.000000,1.000000 
	C791.000000,149.333328 791.000000,297.666656 791.000000,446.000000 
	C720.500000,446.000000 650.000000,446.000000 579.000000,446.000000 
M429.499298,310.465302 
	C503.655609,310.471222 577.812927,310.718872 651.967896,310.404480 
	C708.475342,310.164886 753.105103,264.544098 752.955872,207.973511 
	C752.807678,151.793732 707.777466,106.634514 651.463318,106.597755 
	C482.318787,106.487350 313.174194,106.511482 144.029648,106.532883 
	C138.876617,106.533539 133.669647,106.707581 128.578964,107.436920 
	C75.324493,115.066719 37.710079,161.605591 41.174614,215.412079 
	C44.604534,268.680969 88.790573,310.346741 142.486069,310.453552 
	C222.808517,310.613281 303.131592,310.469513 383.454376,310.442719 
	C385.200134,310.442139 386.945831,310.295868 388.508179,310.225769 
	C388.508179,304.550934 388.508179,299.477112 388.508179,294.136414 
	C386.139099,294.136414 384.154846,294.136536 382.170593,294.136383 
	C302.014404,294.131073 221.857758,294.288513 141.702225,294.058197 
	C94.992546,293.924011 57.168327,255.291611 57.248669,208.488007 
	C57.329960,161.131409 95.155701,122.882393 142.128281,122.873192 
	C312.272736,122.839867 482.417206,122.845917 652.561646,122.893623 
	C704.380249,122.908157 744.767578,171.553299 735.521667,222.629517 
	C727.806274,265.250763 693.533508,293.995087 650.060242,294.042114 
	C570.404053,294.128235 490.747711,294.087433 411.091461,294.099487 
	C409.171936,294.099792 407.252441,294.099518 405.311707,294.099518 
	C405.311707,299.943298 405.311707,305.029053 405.311707,310.469238 
	C413.225739,310.469238 420.862518,310.469238 429.499298,310.465302 
M393.760406,243.877289 
	C395.066772,244.142181 396.364044,244.468475 397.680847,244.662720 
	C415.456665,247.284653 433.048523,236.997299 438.756073,220.660965 
	C444.787781,203.396805 438.228821,185.224091 422.668060,176.086441 
	C406.925171,166.841827 386.645477,169.956085 374.755249,183.384796 
	C358.887726,201.305405 363.735352,235.055573 393.760406,243.877289 
M330.393311,188.325729 
	C334.427124,188.235504 338.504944,188.028992 341.104462,192.051086 
	C345.253082,198.470078 341.121368,206.077042 332.951141,206.557129 
	C327.059052,206.903336 321.130188,206.624588 314.789703,206.624588 
	C315.306610,208.048126 315.395905,208.750854 315.765167,209.243912 
	C323.941284,220.161240 332.127838,231.070984 340.390350,241.922852 
	C341.016571,242.745316 342.212524,243.608795 343.163727,243.632050 
	C349.395020,243.784317 355.631836,243.710464 362.977753,243.710464 
	C355.920135,234.972198 349.621796,227.174026 343.237549,219.269501 
	C344.069427,218.683136 344.422638,218.333359 344.847595,218.149353 
	C356.652618,213.037506 361.487122,204.934998 359.802734,193.050400 
	C358.165985,181.501694 350.070557,173.115677 338.139252,172.520844 
	C324.205627,171.826157 310.210876,172.354309 296.242706,172.384399 
	C296.000885,172.384933 295.759888,172.794846 295.632080,172.910767 
	C295.632080,178.079285 295.632080,183.131348 295.632080,188.336319 
	C307.160309,188.336319 318.289703,188.336319 330.393311,188.325729 
M624.147522,227.572479 
	C613.207764,227.572479 602.268005,227.572479 591.313110,227.572479 
	C591.313110,223.413452 591.313110,219.715027 591.313110,215.669037 
	C603.006348,215.669037 614.275330,215.669037 625.712769,215.669037 
	C625.712769,210.256866 625.712769,205.207428 625.712769,199.665665 
	C614.041626,199.665665 602.634949,199.665665 591.246033,199.665665 
	C591.040588,197.093872 590.874451,195.014938 590.714783,193.016235 
	C584.710022,193.016235 579.098145,193.016235 573.438965,193.016235 
	C573.438965,209.879684 573.438965,226.466904 573.438965,243.267929 
	C592.196533,243.267929 610.694031,243.267929 629.202271,243.267929 
	C629.202271,237.921219 629.202271,232.990143 629.202271,227.570602 
	C627.615967,227.570602 626.335754,227.570602 624.147522,227.572479 
M200.498962,243.631897 
	C206.610672,243.631897 212.722382,243.631897 218.919525,243.631897 
	C218.919525,238.024506 218.919525,233.052338 218.919525,227.540405 
	C206.186630,227.540405 193.611633,227.540405 180.913818,227.540405 
	C180.913818,223.435944 180.913818,219.879730 180.913818,215.771683 
	C192.645966,215.771683 204.048569,215.771683 215.569763,215.771683 
	C215.569763,210.300629 215.569763,205.390930 215.569763,199.948746 
	C203.891647,199.948746 192.485168,199.948746 181.003250,199.948746 
	C180.803406,197.315781 180.643433,195.208099 180.467651,192.891983 
	C174.613739,192.891983 169.008667,192.891983 163.272217,192.891983 
	C163.272217,209.843033 163.272217,226.557877 163.272217,243.630890 
	C175.566666,243.630890 187.532928,243.630890 200.498962,243.631897 
M532.554932,227.386017 
	C532.009155,225.896271 531.005005,224.411362 530.989197,222.916000 
	C530.847900,209.590576 530.880310,196.263306 530.863770,182.936569 
	C530.859497,179.499283 530.863098,176.061981 530.863098,172.470749 
	C524.648743,172.470749 519.081177,172.470749 513.276245,172.470749 
	C513.276245,196.201355 513.276245,219.620941 513.276245,243.276733 
	C530.795715,243.276733 548.169128,243.276733 565.617065,243.276733 
	C565.617065,237.952454 565.617065,233.008163 565.617065,227.413147 
	C554.790588,227.413147 544.168457,227.413147 532.554932,227.386017 
M147.871262,216.380676 
	C156.239029,207.942932 157.559097,197.869492 153.445557,187.317444 
	C149.369110,176.860489 140.718964,172.300613 129.747894,172.154892 
	C118.416801,172.004395 107.082542,172.092926 95.749664,172.077698 
	C93.992363,172.075333 92.235054,172.077362 90.389359,172.077362 
	C90.389359,177.825455 90.389359,182.901733 90.389359,188.322739 
	C92.305084,188.322739 93.945847,188.325211 95.586601,188.322327 
	C106.586098,188.303009 117.585670,188.252762 128.585068,188.276962 
	C133.050385,188.286789 136.425629,190.247833 137.650894,194.669647 
	C138.850983,199.000580 138.080612,203.225174 134.100464,205.753540 
	C131.997116,207.089661 129.140747,207.628799 126.581009,207.776489 
	C121.381630,208.076492 116.152802,207.866150 110.335342,207.866150 
	C113.047585,212.681732 115.258621,216.758881 117.647224,220.729187 
	C118.167068,221.593246 119.313736,222.632950 120.186775,222.646866 
	C129.662323,222.797913 139.345963,223.707748 147.871262,216.380676 
M460.267303,192.723465 
	C456.517975,192.723465 452.768646,192.723465 448.982300,192.723465 
	C448.982300,210.009659 448.982300,226.595612 448.982300,243.286621 
	C454.803528,243.286621 460.361969,243.286621 466.421204,243.286621 
	C466.421204,234.449478 466.421204,225.874756 466.421204,216.714081 
	C478.638306,216.714081 490.364075,216.714081 502.285828,216.714081 
	C502.285828,211.080719 502.285828,206.052673 502.285828,200.651184 
	C490.332886,200.651184 478.743103,200.651184 466.875854,200.651184 
	C466.621399,197.776428 466.397430,195.246567 466.173035,192.711487 
	C464.175934,192.711487 462.679840,192.711487 460.267303,192.723465 
M671.457214,191.956223 
	C659.121765,208.821930 646.786316,225.687622 633.667664,243.624115 
	C641.124207,243.624115 646.899963,243.740265 652.663940,243.530930 
	C653.889221,243.486420 655.480530,242.549759 656.213501,241.528900 
	C672.232849,219.219955 688.158691,196.843842 704.072205,174.459091 
	C704.481873,173.882828 704.551697,173.064987 704.866943,172.091293 
	C699.134155,172.091293 693.794739,171.895828 688.484985,172.206635 
	C686.823792,172.303848 684.712280,173.363281 683.717224,174.673584 
	C679.592651,180.104874 675.816528,185.800827 671.457214,191.956223 
M234.592163,188.280441 
	C252.172821,188.280441 269.753479,188.280441 287.284851,188.280441 
	C287.284851,182.515366 287.284851,177.580078 287.284851,172.392090 
	C266.720612,172.392090 246.480911,172.392090 225.982544,172.392090 
	C225.982544,177.663788 225.982544,182.760498 225.982544,188.282349 
	C228.688522,188.282349 231.157822,188.282349 234.592163,188.280441 
M450.315826,188.261124 
	C468.588165,188.261124 486.860504,188.261124 505.346893,188.261124 
	C505.346893,182.682037 505.346893,177.634583 505.346893,172.358002 
	C486.443420,172.358002 467.866516,172.358002 448.463318,172.358002 
	C448.806427,177.762665 449.135956,182.953735 450.315826,188.261124 
M579.640137,172.162476 
	C577.551880,172.162476 575.463562,172.162476 573.244385,172.162476 
	C573.244385,177.885666 573.244385,182.852493 573.244385,188.058899 
	C591.965515,188.058899 610.532776,188.058899 629.316650,188.058899 
	C629.316650,182.747879 629.316650,177.694351 629.316650,172.163666 
	C612.853699,172.163666 596.732239,172.163666 579.640137,172.162476 
M171.596008,188.340042 
	C187.349304,188.340042 203.102615,188.340042 218.748901,188.340042 
	C218.748901,182.571198 218.748901,177.517303 218.748901,172.513611 
	C199.939804,172.513611 181.547821,172.513611 163.324188,172.513611 
	C163.324188,177.957626 163.324188,183.022598 163.324188,188.339447 
	C166.000580,188.339447 168.316589,188.339447 171.596008,188.340042 
M248.052704,206.508499 
	C248.052704,218.737473 248.052704,230.966446 248.052704,243.259735 
	C254.212158,243.259735 259.741180,243.259735 265.298187,243.259735 
	C265.298187,226.195984 265.298187,209.500900 265.298187,192.743134 
	C259.396423,192.743134 253.838165,192.743134 248.052155,192.743134 
	C248.052155,197.228409 248.052155,201.371170 248.052704,206.508499 
M107.924484,209.502045 
	C107.924484,204.035492 107.924484,198.568939 107.924484,193.055267 
	C101.816963,193.055267 96.104828,193.055267 90.569931,193.055267 
	C90.569931,210.040115 90.569931,226.621857 90.569931,243.265305 
	C96.558517,243.265305 102.142052,243.265305 107.924934,243.265305 
	C107.924934,232.146591 107.924934,221.323853 107.924484,209.502045 
M313.024506,213.500168 
	C313.024506,206.704636 313.024506,199.909088 313.024506,192.988358 
	C307.103607,192.988358 301.512421,192.988358 295.730713,192.988358 
	C295.730713,209.913071 295.730713,226.595367 295.730713,243.270721 
	C301.693573,243.270721 307.247589,243.270721 313.024323,243.270721 
	C313.024323,233.444885 313.024323,223.972473 313.024506,213.500168 
M405.236755,350.989502 
	C411.693146,346.262695 414.427765,340.244080 412.690521,333.888855 
	C410.896851,327.327271 406.447540,323.388123 399.813080,322.075958 
	C393.293182,320.786438 386.995697,323.626953 383.448547,329.230469 
	C379.870453,334.882843 380.337402,342.246765 384.602661,347.431335 
	C389.340240,353.190033 396.457977,354.594147 405.236755,350.989502 
M684.454285,240.193268 
	C685.757080,241.322388 687.005249,243.342468 688.372131,243.426300 
	C694.260925,243.787476 700.184570,243.580643 707.364319,243.580643 
	C698.977966,231.615219 691.280640,220.632874 683.293945,209.237701 
	C680.293030,213.478210 678.063721,216.981232 675.462219,220.181641 
	C673.699097,222.350647 673.574341,223.983994 675.237000,226.290207 
	C678.341858,230.596725 681.121704,235.137558 684.454285,240.193268 
M657.460449,203.969284 
	C660.982361,199.735825 664.504272,195.502350 668.080078,191.204071 
	C664.275024,185.430374 660.673706,179.853455 656.922485,174.379288 
	C656.257568,173.409058 654.988403,172.260437 653.963989,172.226395 
	C647.888794,172.024551 641.803528,172.126770 634.703369,172.126770 
	C642.432617,183.285751 649.577393,193.600906 657.460449,203.969284 
z"/>
<path fill="#F7F8F7" opacity="1.000000" stroke="none" 
	d="
M428.999298,310.467285 
	C420.862518,310.469238 413.225739,310.469238 405.311707,310.469238 
	C405.311707,305.029053 405.311707,299.943298 405.311707,294.099518 
	C407.252441,294.099518 409.171936,294.099792 411.091461,294.099487 
	C490.747711,294.087433 570.404053,294.128235 650.060242,294.042114 
	C693.533508,293.995087 727.806274,265.250763 735.521667,222.629517 
	C744.767578,171.553299 704.380249,122.908157 652.561646,122.893623 
	C482.417206,122.845917 312.272736,122.839867 142.128281,122.873192 
	C95.155701,122.882393 57.329960,161.131409 57.248669,208.488007 
	C57.168327,255.291611 94.992546,293.924011 141.702225,294.058197 
	C221.857758,294.288513 302.014404,294.131073 382.170593,294.136383 
	C384.154846,294.136536 386.139099,294.136414 388.508179,294.136414 
	C388.508179,299.477112 388.508179,304.550934 388.508179,310.225769 
	C386.945831,310.295868 385.200134,310.442139 383.454376,310.442719 
	C303.131592,310.469513 222.808517,310.613281 142.486069,310.453552 
	C88.790573,310.346741 44.604534,268.680969 41.174614,215.412079 
	C37.710079,161.605591 75.324493,115.066719 128.578964,107.436920 
	C133.669647,106.707581 138.876617,106.533539 144.029648,106.532883 
	C313.174194,106.511482 482.318787,106.487350 651.463318,106.597755 
	C707.777466,106.634514 752.807678,151.793732 752.955872,207.973511 
	C753.105103,264.544098 708.475342,310.164886 651.967896,310.404480 
	C577.812927,310.718872 503.655609,310.471222 428.999298,310.467285 
z"/>
<path fill="#F9F9F8" opacity="1.000000" stroke="none" 
	d="
M393.362610,243.776855 
	C363.735352,235.055573 358.887726,201.305405 374.755249,183.384796 
	C386.645477,169.956085 406.925171,166.841827 422.668060,176.086441 
	C438.228821,185.224091 444.787781,203.396805 438.756073,220.660965 
	C433.048523,236.997299 415.456665,247.284653 397.680847,244.662720 
	C396.364044,244.468475 395.066772,244.142181 393.362610,243.776855 
M410.633301,188.562897 
	C399.567413,185.302902 389.639404,189.154785 385.247437,198.412155 
	C380.829376,207.724533 383.818817,219.451736 392.057465,225.126938 
	C401.696960,231.767120 414.811005,228.873001 420.672852,218.811874 
	C427.020050,207.917801 422.944458,194.810364 410.633301,188.562897 
z"/>
<path fill="#F7F7F6" opacity="1.000000" stroke="none" 
	d="
M329.906189,188.331024 
	C318.289703,188.336319 307.160309,188.336319 295.632080,188.336319 
	C295.632080,183.131348 295.632080,178.079285 295.632080,172.910767 
	C295.759888,172.794846 296.000885,172.384933 296.242706,172.384399 
	C310.210876,172.354309 324.205627,171.826157 338.139252,172.520844 
	C350.070557,173.115677 358.165985,181.501694 359.802734,193.050400 
	C361.487122,204.934998 356.652618,213.037506 344.847595,218.149353 
	C344.422638,218.333359 344.069427,218.683136 343.237549,219.269501 
	C349.621796,227.174026 355.920135,234.972198 362.977753,243.710464 
	C355.631836,243.710464 349.395020,243.784317 343.163727,243.632050 
	C342.212524,243.608795 341.016571,242.745316 340.390350,241.922852 
	C332.127838,231.070984 323.941284,220.161240 315.765167,209.243912 
	C315.395905,208.750854 315.306610,208.048126 314.789703,206.624588 
	C321.130188,206.624588 327.059052,206.903336 332.951141,206.557129 
	C341.121368,206.077042 345.253082,198.470078 341.104462,192.051086 
	C338.504944,188.028992 334.427124,188.235504 329.906189,188.331024 
z"/>
<path fill="#F7F7F7" opacity="1.000000" stroke="none" 
	d="
M624.601562,227.571533 
	C626.335754,227.570602 627.615967,227.570602 629.202271,227.570602 
	C629.202271,232.990143 629.202271,237.921219 629.202271,243.267929 
	C610.694031,243.267929 592.196533,243.267929 573.438965,243.267929 
	C573.438965,226.466904 573.438965,209.879684 573.438965,193.016235 
	C579.098145,193.016235 584.710022,193.016235 590.714783,193.016235 
	C590.874451,195.014938 591.040588,197.093872 591.246033,199.665665 
	C602.634949,199.665665 614.041626,199.665665 625.712769,199.665665 
	C625.712769,205.207428 625.712769,210.256866 625.712769,215.669037 
	C614.275330,215.669037 603.006348,215.669037 591.313110,215.669037 
	C591.313110,219.715027 591.313110,223.413452 591.313110,227.572479 
	C602.268005,227.572479 613.207764,227.572479 624.601562,227.571533 
z"/>
<path fill="#F7F7F6" opacity="1.000000" stroke="none" 
	d="
M199.999084,243.631393 
	C187.532928,243.630890 175.566666,243.630890 163.272217,243.630890 
	C163.272217,226.557877 163.272217,209.843033 163.272217,192.891983 
	C169.008667,192.891983 174.613739,192.891983 180.467651,192.891983 
	C180.643433,195.208099 180.803406,197.315781 181.003250,199.948746 
	C192.485168,199.948746 203.891647,199.948746 215.569763,199.948746 
	C215.569763,205.390930 215.569763,210.300629 215.569763,215.771683 
	C204.048569,215.771683 192.645966,215.771683 180.913818,215.771683 
	C180.913818,219.879730 180.913818,223.435944 180.913818,227.540405 
	C193.611633,227.540405 206.186630,227.540405 218.919525,227.540405 
	C218.919525,233.052338 218.919525,238.024506 218.919525,243.631897 
	C212.722382,243.631897 206.610672,243.631897 199.999084,243.631393 
z"/>
<path fill="#F6F6F5" opacity="1.000000" stroke="none" 
	d="
M533.050598,227.399582 
	C544.168457,227.413147 554.790588,227.413147 565.617065,227.413147 
	C565.617065,233.008163 565.617065,237.952454 565.617065,243.276733 
	C548.169128,243.276733 530.795715,243.276733 513.276245,243.276733 
	C513.276245,219.620941 513.276245,196.201355 513.276245,172.470749 
	C519.081177,172.470749 524.648743,172.470749 530.863098,172.470749 
	C530.863098,176.061981 530.859497,179.499283 530.863770,182.936569 
	C530.880310,196.263306 530.847900,209.590576 530.989197,222.916000 
	C531.005005,224.411362 532.009155,225.896271 533.050598,227.399582 
z"/>
<path fill="#F7F7F7" opacity="1.000000" stroke="none" 
	d="
M147.604279,216.617889 
	C139.345963,223.707748 129.662323,222.797913 120.186775,222.646866 
	C119.313736,222.632950 118.167068,221.593246 117.647224,220.729187 
	C115.258621,216.758881 113.047585,212.681732 110.335342,207.866150 
	C116.152802,207.866150 121.381630,208.076492 126.581009,207.776489 
	C129.140747,207.628799 131.997116,207.089661 134.100464,205.753540 
	C138.080612,203.225174 138.850983,199.000580 137.650894,194.669647 
	C136.425629,190.247833 133.050385,188.286789 128.585068,188.276962 
	C117.585670,188.252762 106.586098,188.303009 95.586601,188.322327 
	C93.945847,188.325211 92.305084,188.322739 90.389359,188.322739 
	C90.389359,182.901733 90.389359,177.825455 90.389359,172.077362 
	C92.235054,172.077362 93.992363,172.075333 95.749664,172.077698 
	C107.082542,172.092926 118.416801,172.004395 129.747894,172.154892 
	C140.718964,172.300613 149.369110,176.860489 153.445557,187.317444 
	C157.559097,197.869492 156.239029,207.942932 147.604279,216.617889 
z"/>
<path fill="#F8F8F8" opacity="1.000000" stroke="none" 
	d="
M460.725525,192.717468 
	C462.679840,192.711487 464.175934,192.711487 466.173035,192.711487 
	C466.397430,195.246567 466.621399,197.776428 466.875854,200.651184 
	C478.743103,200.651184 490.332886,200.651184 502.285828,200.651184 
	C502.285828,206.052673 502.285828,211.080719 502.285828,216.714081 
	C490.364075,216.714081 478.638306,216.714081 466.421204,216.714081 
	C466.421204,225.874756 466.421204,234.449478 466.421204,243.286621 
	C460.361969,243.286621 454.803528,243.286621 448.982300,243.286621 
	C448.982300,226.595612 448.982300,210.009659 448.982300,192.723465 
	C452.768646,192.723465 456.517975,192.723465 460.725525,192.717468 
z"/>
<path fill="#F6F6F5" opacity="1.000000" stroke="none" 
	d="
M671.684814,191.677917 
	C675.816528,185.800827 679.592651,180.104874 683.717224,174.673584 
	C684.712280,173.363281 686.823792,172.303848 688.484985,172.206635 
	C693.794739,171.895828 699.134155,172.091293 704.866943,172.091293 
	C704.551697,173.064987 704.481873,173.882828 704.072205,174.459091 
	C688.158691,196.843842 672.232849,219.219955 656.213501,241.528900 
	C655.480530,242.549759 653.889221,243.486420 652.663940,243.530930 
	C646.899963,243.740265 641.124207,243.624115 633.667664,243.624115 
	C646.786316,225.687622 659.121765,208.821930 671.684814,191.677917 
z"/>
<path fill="#F6F6F6" opacity="1.000000" stroke="none" 
	d="
M234.109634,188.281403 
	C231.157822,188.282349 228.688522,188.282349 225.982544,188.282349 
	C225.982544,182.760498 225.982544,177.663788 225.982544,172.392090 
	C246.480911,172.392090 266.720612,172.392090 287.284851,172.392090 
	C287.284851,177.580078 287.284851,182.515366 287.284851,188.280441 
	C269.753479,188.280441 252.172821,188.280441 234.109634,188.281403 
z"/>
<path fill="#F5F5F5" opacity="1.000000" stroke="none" 
	d="
M449.890656,188.202957 
	C449.135956,182.953735 448.806427,177.762665 448.463318,172.358002 
	C467.866516,172.358002 486.443420,172.358002 505.346893,172.358002 
	C505.346893,177.634583 505.346893,182.682037 505.346893,188.261124 
	C486.860504,188.261124 468.588165,188.261124 449.890656,188.202957 
z"/>
<path fill="#F4F4F4" opacity="1.000000" stroke="none" 
	d="
M580.125427,172.163071 
	C596.732239,172.163666 612.853699,172.163666 629.316650,172.163666 
	C629.316650,177.694351 629.316650,182.747879 629.316650,188.058899 
	C610.532776,188.058899 591.965515,188.058899 573.244385,188.058899 
	C573.244385,182.852493 573.244385,177.885666 573.244385,172.162476 
	C575.463562,172.162476 577.551880,172.162476 580.125427,172.163071 
z"/>
<path fill="#F7F7F7" opacity="1.000000" stroke="none" 
	d="
M171.114304,188.339752 
	C168.316589,188.339447 166.000580,188.339447 163.324188,188.339447 
	C163.324188,183.022598 163.324188,177.957626 163.324188,172.513611 
	C181.547821,172.513611 199.939804,172.513611 218.748901,172.513611 
	C218.748901,177.517303 218.748901,182.571198 218.748901,188.340042 
	C203.102615,188.340042 187.349304,188.340042 171.114304,188.339752 
z"/>
<path fill="#F3F3F3" opacity="1.000000" stroke="none" 
	d="
M248.052429,206.011230 
	C248.052155,201.371170 248.052155,197.228409 248.052155,192.743134 
	C253.838165,192.743134 259.396423,192.743134 265.298187,192.743134 
	C265.298187,209.500900 265.298187,226.195984 265.298187,243.259735 
	C259.741180,243.259735 254.212158,243.259735 248.052704,243.259735 
	C248.052704,230.966446 248.052704,218.737473 248.052429,206.011230 
z"/>
<path fill="#F5F5F5" opacity="1.000000" stroke="none" 
	d="
M107.924713,210.001572 
	C107.924934,221.323853 107.924934,232.146591 107.924934,243.265305 
	C102.142052,243.265305 96.558517,243.265305 90.569931,243.265305 
	C90.569931,226.621857 90.569931,210.040115 90.569931,193.055267 
	C96.104828,193.055267 101.816963,193.055267 107.924484,193.055267 
	C107.924484,198.568939 107.924484,204.035492 107.924713,210.001572 
z"/>
<path fill="#F5F5F4" opacity="1.000000" stroke="none" 
	d="
M313.024414,214.000122 
	C313.024323,223.972473 313.024323,233.444885 313.024323,243.270721 
	C307.247589,243.270721 301.693573,243.270721 295.730713,243.270721 
	C295.730713,226.595367 295.730713,209.913071 295.730713,192.988358 
	C301.512421,192.988358 307.103607,192.988358 313.024506,192.988358 
	C313.024506,199.909088 313.024506,206.704636 313.024414,214.000122 
z"/>
<path fill="#F8F9F9" opacity="1.000000" stroke="none" 
	d="
M404.903473,351.179932 
	C396.457977,354.594147 389.340240,353.190033 384.602661,347.431335 
	C380.337402,342.246765 379.870453,334.882843 383.448547,329.230469 
	C386.995697,323.626953 393.293182,320.786438 399.813080,322.075958 
	C406.447540,323.388123 410.896851,327.327271 412.690521,333.888855 
	C414.427765,340.244080 411.693146,346.262695 404.903473,351.179932 
z"/>
<path fill="#F4F4F1" opacity="1.000000" stroke="none" 
	d="
M684.245544,239.887070 
	C681.121704,235.137558 678.341858,230.596725 675.237000,226.290207 
	C673.574341,223.983994 673.699097,222.350647 675.462219,220.181641 
	C678.063721,216.981232 680.293030,213.478210 683.293945,209.237701 
	C691.280640,220.632874 698.977966,231.615219 707.364319,243.580643 
	C700.184570,243.580643 694.260925,243.787476 688.372131,243.426300 
	C687.005249,243.342468 685.757080,241.322388 684.245544,239.887070 
z"/>
<path fill="#F6F6F4" opacity="1.000000" stroke="none" 
	d="
M657.091309,203.942673 
	C649.577393,193.600906 642.432617,183.285751 634.703369,172.126770 
	C641.803528,172.126770 647.888794,172.024551 653.963989,172.226395 
	C654.988403,172.260437 656.257568,173.409058 656.922485,174.379288 
	C660.673706,179.853455 664.275024,185.430374 668.080078,191.204071 
	C664.504272,195.502350 660.982361,199.735825 657.091309,203.942673 
z"/>
<path fill="#050505" opacity="1.000000" stroke="none" 
	d="
M410.994934,188.706329 
	C422.944458,194.810364 427.020050,207.917801 420.672852,218.811874 
	C414.811005,228.873001 401.696960,231.767120 392.057465,225.126938 
	C383.818817,219.451736 380.829376,207.724533 385.247437,198.412155 
	C389.639404,189.154785 399.567413,185.302902 410.994934,188.706329 
z"/>
</svg>