<svg xmlns="http://www.w3.org/2000/svg" fill="white" id="Capa_1" height="512" viewBox="0 0 512 512" width="512"><g><g><path d="m499.46 334.565c-2.756-3.096-7.497-3.368-10.589-.612-3.093 2.755-3.367 7.496-.612 10.589 5.637 6.328 8.741 14.479 8.741 22.952v27.546c0 7.033-2.013 13.876-5.823 19.787l-19.28 29.925c-3.787 5.877-10.221 9.386-17.212 9.386h-14.143c-2.401 0-3.438-1.689-3.772-2.416s-.943-2.613.619-4.436l1.685-1.967c7.152-8.351 11.091-19.004 11.091-29.998v-12.152c0-4.143-3.358-7.5-7.5-7.5s-7.5 3.357-7.5 7.5v12.152c0 7.418-2.658 14.605-7.483 20.239l-1.684 1.967c-4.924 5.747-6.017 13.589-2.854 20.464 3.164 6.875 9.831 11.146 17.399 11.146h14.143c12.112 0 23.26-6.079 29.821-16.261l19.28-29.925c5.373-8.339 8.213-17.991 8.213-27.912v-27.546c0-12.156-4.453-23.85-12.54-32.928z"></path><path d="m40.961 427.467c0 17.534 14.265 31.799 31.799 31.799s31.799-14.265 31.799-31.799-14.265-31.799-31.799-31.799-31.799 14.265-31.799 31.799zm31.799-16.799c9.263 0 16.799 7.536 16.799 16.799s-7.536 16.799-16.799 16.799-16.799-7.536-16.799-16.799 7.537-16.799 16.799-16.799z"></path><path d="m157.361 459.266c17.534 0 31.799-14.265 31.799-31.799s-14.265-31.799-31.799-31.799-31.799 14.265-31.799 31.799 14.265 31.799 31.799 31.799zm0-48.598c9.263 0 16.799 7.536 16.799 16.799s-7.536 16.799-16.799 16.799-16.799-7.536-16.799-16.799 7.536-16.799 16.799-16.799z"></path><path d="m241.962 459.266c17.534 0 31.799-14.265 31.799-31.799s-14.265-31.799-31.799-31.799-31.799 14.265-31.799 31.799 14.265 31.799 31.799 31.799zm0-48.598c9.263 0 16.799 7.536 16.799 16.799s-7.536 16.799-16.799 16.799-16.799-7.536-16.799-16.799 7.536-16.799 16.799-16.799z"></path><path d="m326.562 459.266c17.534 0 31.799-14.265 31.799-31.799s-14.265-31.799-31.799-31.799-31.799 14.265-31.799 31.799 14.266 31.799 31.799 31.799zm0-48.598c9.263 0 16.799 7.536 16.799 16.799s-7.536 16.799-16.799 16.799-16.799-7.536-16.799-16.799 7.537-16.799 16.799-16.799z"></path><path d="m372.242 292.097h-4.088v-80.782c0-25.909-13.946-48.615-34.719-61.03l108.029-108.03c8.159-8.159 21.434-8.159 29.593-.001 3.952 3.953 6.129 9.208 6.129 14.798 0 5.589-2.177 10.844-6.129 14.796l-96.28 96.28c-2.929 2.93-2.929 7.678 0 10.607 1.464 1.464 3.384 2.196 5.303 2.196s3.839-.732 5.303-2.196l45.001-45.001v155.411c-3.778 5.021-6.02 11.259-6.02 18.011 0 9.247 4.205 17.529 10.8 23.04v37.035c0 4.143 3.358 7.5 7.5 7.5s7.5-3.357 7.5-7.5v-30.357c1.38.195 2.787.302 4.22.302 16.553 0 30.02-13.467 30.02-30.021 0-6.752-2.242-12.99-6.02-18.011v-203.41l3.279-3.279c6.786-6.785 10.522-15.808 10.522-25.403s-3.737-18.618-10.522-25.404c-14.008-14.007-36.799-14.006-50.806 0l-112.024 112.025c-6.855-2.208-14.155-3.413-21.734-3.413h-66.439c-18.25 0-33.099 14.848-33.099 33.099v27.298h-74.641c-4.142 0-7.5 3.357-7.5 7.5s3.358 7.5 7.5 7.5h74.642v59.46c0 17.634 14.346 31.98 31.98 31.98h142.701c6.661 0 12.081 5.419 12.081 12.08v.799c0 6.661-5.419 12.081-12.081 12.081h-190.583c-4.142 0-7.5 3.357-7.5 7.5s3.358 7.5 7.5 7.5h110.222v17.02h-184.442v-17.02h45.24c4.142 0 7.5-3.357 7.5-7.5s-3.358-7.5-7.5-7.5h-125.6c-6.661 0-12.081-5.42-12.081-12.081v-92.238c0-6.661 5.419-12.081 12.081-12.081h67.52c4.142 0 7.5-3.357 7.5-7.5s-3.358-7.5-7.5-7.5h-67.52c-14.932 0-27.08 12.148-27.08 27.081v92.238c0 14.933 12.148 27.081 27.081 27.081h65.36v17.02h-29.051c-34.953 0-63.39 28.436-63.39 63.39 0 34.953 28.437 63.39 63.39 63.39h272.543c34.953 0 63.39-28.437 63.39-63.39 0-34.954-28.437-63.391-63.39-63.391h-29.051v-17.02h65.36c14.932 0 27.081-12.148 27.081-27.081v-.799c0-14.93-12.149-27.079-27.081-27.079zm82.143 30.08c-8.282 0-15.02-6.738-15.02-15.021s6.738-15.02 15.02-15.02 15.02 6.737 15.02 15.02-6.738 15.021-15.02 15.021zm9-43.66c-2.843-.895-5.866-1.38-9-1.38s-6.157.485-9 1.38v-159.783l18-18zm-250.823-3.4v-66.96-34.798c0-9.979 8.119-18.099 18.099-18.099h66.439c30.909 0 56.055 25.146 56.055 56.055v80.782h-123.613c-9.363 0-16.98-7.617-16.98-16.98zm171.761 152.35c0 26.683-21.708 48.39-48.39 48.39h-272.543c-26.683 0-48.39-21.707-48.39-48.39s21.708-48.391 48.39-48.391h272.543c26.682.001 48.39 21.709 48.39 48.391z"></path><path d="m459.08 64.839 2.713-2.712c2.93-2.929 2.93-7.678.002-10.607s-7.677-2.931-10.606-.002l-2.713 2.712c-2.93 2.929-2.93 7.678-.002 10.607 1.464 1.465 3.384 2.197 5.304 2.197 1.919.001 3.838-.731 5.302-2.195z"></path><path d="m53.02 251.791v47.806c0 4.143 3.358 7.5 7.5 7.5s7.5-3.357 7.5-7.5v-47.806c0-4.143-3.358-7.5-7.5-7.5s-7.5 3.358-7.5 7.5z"></path><path d="m84.22 251.791v47.806c0 4.143 3.358 7.5 7.5 7.5s7.5-3.357 7.5-7.5v-47.806c0-4.143-3.358-7.5-7.5-7.5s-7.5 3.358-7.5 7.5z"></path><path d="m122.92 307.097c4.142 0 7.5-3.357 7.5-7.5v-47.806c0-4.143-3.358-7.5-7.5-7.5s-7.5 3.357-7.5 7.5v47.806c0 4.143 3.358 7.5 7.5 7.5z"></path></g></g></svg>