<svg xmlns="http://www.w3.org/2000/svg" fill="white" viewBox="0 0 64 64" width="512" height="512"><g id="Layer_32" data-name="Layer 32"><path d="M23,12a8,8,0,1,0-8,8A8.009,8.009,0,0,0,23,12ZM15,9a1,1,0,0,1,1,1h2a3,3,0,0,0-2-2.816V6.09a5.993,5.993,0,0,1,0,11.82V16.816A2.993,2.993,0,0,0,15,11a1,1,0,0,1,0-2Zm-1,5H12a3,3,0,0,0,2,2.816V17.91A5.993,5.993,0,0,1,14,6.09V7.184A2.993,2.993,0,0,0,15,13a1,1,0,1,1-1,1Z"></path><path d="M31.22,24.374C30.686,25.041,26,30.975,26,34a6,6,0,0,0,12,0c0-3.025-4.686-8.959-5.22-9.626A1.033,1.033,0,0,0,31.22,24.374ZM32,38a4,4,0,0,1-4-4c0-1.521,2.208-4.972,4-7.366,1.792,2.394,4,5.845,4,7.366A4,4,0,0,1,32,38Z"></path><path d="M52,11a3,3,0,0,0-3-3H25.236A10.995,10.995,0,1,0,14,22.949v6.235a2.982,2.982,0,0,0,0,5.632V50.184A2.993,2.993,0,0,0,15,56H38.764A10.995,10.995,0,1,0,50,41.051V34.816a2.982,2.982,0,0,0,0-5.632V13.816A3,3,0,0,0,52,11ZM25.809,14H48V29h-4.4A11.982,11.982,0,0,0,20.4,29H16V22.949A11.013,11.013,0,0,0,25.809,14ZM42,32A10,10,0,1,1,32,22,10.011,10.011,0,0,1,42,32ZM6,12a9,9,0,1,1,9,9A9.01,9.01,0,0,1,6,12Zm9,19h5.051c-.028.331-.051.662-.051,1s.023.669.051,1H15a1,1,0,0,1,0-2Zm0,23a1,1,0,0,1,0-2H38a10.989,10.989,0,0,0,.191,2Zm23.191-4H16V35H20.4a11.982,11.982,0,0,0,23.21,0H48v6.051A11.013,11.013,0,0,0,38.191,50ZM58,52a8.99,8.99,0,0,1-16.1,5.513l5.1-5.1,2.293,2.293a1,1,0,0,0,1.414,0L54,51.414V53h2V49a1,1,0,0,0-1-1H51v2h1.586L50,52.586l-2.293-2.293a1,1,0,0,0-1.414,0l-5.462,5.462A9,9,0,1,1,58,52ZM49,33H43.949c.028-.331.051-.662.051-1s-.023-.669-.051-1H49a1,1,0,0,1,0,2Zm0-21H26a10.989,10.989,0,0,0-.191-2H49a1,1,0,0,1,0,2Z"></path></g></svg>